<svg width="120" height="100" viewBox="0 0 120 100" fill="none" xmlns="http://www.w3.org/2000/svg">
<path d="M45 5V30L60 18.507L45 5Z" fill="#E11D48"/>
<path d="M45 75L60 62.0301L45 51V75Z" fill="#E11D48"/>
<path d="M75.4654 36.3715L119.027 0H93.6365L43 40.5079L75.4654 36.3715Z" fill="#7C3AED"/>
<path d="M43 40.5078L93.6365 81H119.027L75.4654 44.6216L43 40.5078Z" fill="#0D9488"/>
<path d="M0 0.000976562V30.1312L17.3134 16.2797L0 0.000976562Z" fill="#E11D48"/>
<path d="M0 80.9978L17.3134 64.7228L0 50.8818V80.9978Z" fill="#E11D48"/>
<path d="M32.4654 36.3715L54.246 18.1858L76.0265 0H50.6365L0 40.5079L32.4654 36.3715Z" fill="#7C3AED"/>
<path d="M0 40.5078L50.6365 81H76.0265L32.4654 44.6216L0 40.5078Z" fill="#0D9488"/>
<path d="M15.33 91.21C15.4967 90.95 15.7267 90.74 16.02 90.58C16.3133 90.42 16.6567 90.34 17.05 90.34C17.51 90.34 17.9267 90.4567 18.3 90.69C18.6733 90.9233 18.9667 91.2567 19.18 91.69C19.4 92.1233 19.51 92.6267 19.51 93.2C19.51 93.7733 19.4 94.28 19.18 94.72C18.9667 95.1533 18.6733 95.49 18.3 95.73C17.9267 95.9633 17.51 96.08 17.05 96.08C16.6633 96.08 16.32 96 16.02 95.84C15.7267 95.68 15.4967 95.4733 15.33 95.22V98.66H13.62V90.42H15.33V91.21ZM17.77 93.2C17.77 92.7733 17.65 92.44 17.41 92.2C17.1767 91.9533 16.8867 91.83 16.54 91.83C16.2 91.83 15.91 91.9533 15.67 92.2C15.4367 92.4467 15.32 92.7833 15.32 93.21C15.32 93.6367 15.4367 93.9733 15.67 94.22C15.91 94.4667 16.2 94.59 16.54 94.59C16.88 94.59 17.17 94.4667 17.41 94.22C17.65 93.9667 17.77 93.6267 17.77 93.2ZM25.6671 93.12C25.6671 93.28 25.6571 93.4467 25.6371 93.62H21.7671C21.7938 93.9667 21.9038 94.2333 22.0971 94.42C22.2971 94.6 22.5404 94.69 22.8271 94.69C23.2538 94.69 23.5504 94.51 23.7171 94.15H25.5371C25.4438 94.5167 25.2738 94.8467 25.0271 95.14C24.7871 95.4333 24.4838 95.6633 24.1171 95.83C23.7504 95.9967 23.3404 96.08 22.8871 96.08C22.3404 96.08 21.8538 95.9633 21.4271 95.73C21.0004 95.4967 20.6671 95.1633 20.4271 94.73C20.1871 94.2967 20.0671 93.79 20.0671 93.21C20.0671 92.63 20.1838 92.1233 20.4171 91.69C20.6571 91.2567 20.9904 90.9233 21.4171 90.69C21.8438 90.4567 22.3338 90.34 22.8871 90.34C23.4271 90.34 23.9071 90.4533 24.3271 90.68C24.7471 90.9067 25.0738 91.23 25.3071 91.65C25.5471 92.07 25.6671 92.56 25.6671 93.12ZM23.9171 92.67C23.9171 92.3767 23.8171 92.1433 23.6171 91.97C23.4171 91.7967 23.1671 91.71 22.8671 91.71C22.5804 91.71 22.3371 91.7933 22.1371 91.96C21.9438 92.1267 21.8238 92.3633 21.7771 92.67H23.9171ZM28.2792 91.35C28.4792 91.0433 28.7292 90.8033 29.0292 90.63C29.3292 90.45 29.6626 90.36 30.0292 90.36V92.17H29.5592C29.1326 92.17 28.8126 92.2633 28.5992 92.45C28.3859 92.63 28.2792 92.95 28.2792 93.41V96H26.5692V90.42H28.2792V91.35ZM33.1166 96.08C32.6299 96.08 32.1966 95.9967 31.8166 95.83C31.4366 95.6633 31.1366 95.4367 30.9166 95.15C30.6966 94.8567 30.5732 94.53 30.5466 94.17H32.2366C32.2566 94.3633 32.3466 94.52 32.5066 94.64C32.6666 94.76 32.8632 94.82 33.0966 94.82C33.3099 94.82 33.4732 94.78 33.5866 94.7C33.7066 94.6133 33.7666 94.5033 33.7666 94.37C33.7666 94.21 33.6832 94.0933 33.5166 94.02C33.3499 93.94 33.0799 93.8533 32.7066 93.76C32.3066 93.6667 31.9732 93.57 31.7066 93.47C31.4399 93.3633 31.2099 93.2 31.0166 92.98C30.8232 92.7533 30.7266 92.45 30.7266 92.07C30.7266 91.75 30.8132 91.46 30.9866 91.2C31.1666 90.9333 31.4266 90.7233 31.7666 90.57C32.1132 90.4167 32.5232 90.34 32.9966 90.34C33.6966 90.34 34.2466 90.5133 34.6466 90.86C35.0532 91.2067 35.2866 91.6667 35.3466 92.24H33.7666C33.7399 92.0467 33.6532 91.8933 33.5066 91.78C33.3666 91.6667 33.1799 91.61 32.9466 91.61C32.7466 91.61 32.5932 91.65 32.4866 91.73C32.3799 91.8033 32.3266 91.9067 32.3266 92.04C32.3266 92.2 32.4099 92.32 32.5766 92.4C32.7499 92.48 33.0166 92.56 33.3766 92.64C33.7899 92.7467 34.1266 92.8533 34.3866 92.96C34.6466 93.06 34.8732 93.2267 35.0666 93.46C35.2666 93.6867 35.3699 93.9933 35.3766 94.38C35.3766 94.7067 35.2832 95 35.0966 95.26C34.9166 95.5133 34.6532 95.7133 34.3066 95.86C33.9666 96.0067 33.5699 96.08 33.1166 96.08ZM38.9627 96.08C38.4161 96.08 37.9227 95.9633 37.4827 95.73C37.0494 95.4967 36.7061 95.1633 36.4527 94.73C36.2061 94.2967 36.0827 93.79 36.0827 93.21C36.0827 92.6367 36.2094 92.1333 36.4627 91.7C36.7161 91.26 37.0627 90.9233 37.5027 90.69C37.9427 90.4567 38.4361 90.34 38.9827 90.34C39.5294 90.34 40.0227 90.4567 40.4627 90.69C40.9027 90.9233 41.2494 91.26 41.5027 91.7C41.7561 92.1333 41.8827 92.6367 41.8827 93.21C41.8827 93.7833 41.7527 94.29 41.4927 94.73C41.2394 95.1633 40.8894 95.4967 40.4427 95.73C40.0027 95.9633 39.5094 96.08 38.9627 96.08ZM38.9627 94.6C39.2894 94.6 39.5661 94.48 39.7927 94.24C40.0261 94 40.1427 93.6567 40.1427 93.21C40.1427 92.7633 40.0294 92.42 39.8027 92.18C39.5827 91.94 39.3094 91.82 38.9827 91.82C38.6494 91.82 38.3727 91.94 38.1527 92.18C37.9327 92.4133 37.8227 92.7567 37.8227 93.21C37.8227 93.6567 37.9294 94 38.1427 94.24C38.3627 94.48 38.6361 94.6 38.9627 94.6ZM46.1899 90.36C46.8433 90.36 47.3633 90.5733 47.7499 91C48.1433 91.42 48.3399 92 48.3399 92.74V96H46.6399V92.97C46.6399 92.5967 46.5433 92.3067 46.3499 92.1C46.1566 91.8933 45.8966 91.79 45.5699 91.79C45.2433 91.79 44.9833 91.8933 44.7899 92.1C44.5966 92.3067 44.4999 92.5967 44.4999 92.97V96H42.7899V90.42H44.4999V91.16C44.6733 90.9133 44.9066 90.72 45.1999 90.58C45.4933 90.4333 45.8233 90.36 46.1899 90.36ZM49.1882 93.2C49.1882 92.6267 49.2949 92.1233 49.5082 91.69C49.7282 91.2567 50.0249 90.9233 50.3982 90.69C50.7715 90.4567 51.1882 90.34 51.6482 90.34C52.0415 90.34 52.3849 90.42 52.6782 90.58C52.9782 90.74 53.2082 90.95 53.3682 91.21V90.42H55.0782V96H53.3682V95.21C53.2015 95.47 52.9682 95.68 52.6682 95.84C52.3749 96 52.0315 96.08 51.6382 96.08C51.1849 96.08 50.7715 95.9633 50.3982 95.73C50.0249 95.49 49.7282 95.1533 49.5082 94.72C49.2949 94.28 49.1882 93.7733 49.1882 93.2ZM53.3682 93.21C53.3682 92.7833 53.2482 92.4467 53.0082 92.2C52.7749 91.9533 52.4882 91.83 52.1482 91.83C51.8082 91.83 51.5182 91.9533 51.2782 92.2C51.0449 92.44 50.9282 92.7733 50.9282 93.2C50.9282 93.6267 51.0449 93.9667 51.2782 94.22C51.5182 94.4667 51.8082 94.59 52.1482 94.59C52.4882 94.59 52.7749 94.4667 53.0082 94.22C53.2482 93.9733 53.3682 93.6367 53.3682 93.21ZM58.0253 88.6V96H56.3153V88.6H58.0253ZM64.4937 94.55V96H63.6237C63.0037 96 62.5203 95.85 62.1737 95.55C61.827 95.2433 61.6537 94.7467 61.6537 94.06V91.84H60.9737V90.42H61.6537V89.06H63.3637V90.42H64.4837V91.84H63.3637V94.08C63.3637 94.2467 63.4037 94.3667 63.4837 94.44C63.5637 94.5133 63.697 94.55 63.8837 94.55H64.4937ZM67.1562 91.35C67.3562 91.0433 67.6062 90.8033 67.9062 90.63C68.2062 90.45 68.5395 90.36 68.9062 90.36V92.17H68.4362C68.0095 92.17 67.6895 92.2633 67.4762 92.45C67.2628 92.63 67.1562 92.95 67.1562 93.41V96H65.4462V90.42H67.1562V91.35ZM69.3835 93.2C69.3835 92.6267 69.4902 92.1233 69.7035 91.69C69.9235 91.2567 70.2202 90.9233 70.5935 90.69C70.9668 90.4567 71.3835 90.34 71.8435 90.34C72.2368 90.34 72.5802 90.42 72.8735 90.58C73.1735 90.74 73.4035 90.95 73.5635 91.21V90.42H75.2735V96H73.5635V95.21C73.3968 95.47 73.1635 95.68 72.8635 95.84C72.5702 96 72.2268 96.08 71.8335 96.08C71.3802 96.08 70.9668 95.9633 70.5935 95.73C70.2202 95.49 69.9235 95.1533 69.7035 94.72C69.4902 94.28 69.3835 93.7733 69.3835 93.2ZM73.5635 93.21C73.5635 92.7833 73.4435 92.4467 73.2035 92.2C72.9702 91.9533 72.6835 91.83 72.3435 91.83C72.0035 91.83 71.7135 91.9533 71.4735 92.2C71.2402 92.44 71.1235 92.7733 71.1235 93.2C71.1235 93.6267 71.2402 93.9667 71.4735 94.22C71.7135 94.4667 72.0035 94.59 72.3435 94.59C72.6835 94.59 72.9702 94.4667 73.2035 94.22C73.4435 93.9733 73.5635 93.6367 73.5635 93.21ZM77.3706 89.84C77.0706 89.84 76.824 89.7533 76.6306 89.58C76.444 89.4 76.3506 89.18 76.3506 88.92C76.3506 88.6533 76.444 88.4333 76.6306 88.26C76.824 88.08 77.0706 87.99 77.3706 87.99C77.664 87.99 77.904 88.08 78.0906 88.26C78.284 88.4333 78.3806 88.6533 78.3806 88.92C78.3806 89.18 78.284 89.4 78.0906 89.58C77.904 89.7533 77.664 89.84 77.3706 89.84ZM78.2206 90.42V96H76.5106V90.42H78.2206ZM82.8598 90.36C83.5132 90.36 84.0332 90.5733 84.4198 91C84.8132 91.42 85.0098 92 85.0098 92.74V96H83.3098V92.97C83.3098 92.5967 83.2132 92.3067 83.0198 92.1C82.8265 91.8933 82.5665 91.79 82.2398 91.79C81.9132 91.79 81.6532 91.8933 81.4598 92.1C81.2665 92.3067 81.1698 92.5967 81.1698 92.97V96H79.4598V90.42H81.1698V91.16C81.3432 90.9133 81.5765 90.72 81.8698 90.58C82.1632 90.4333 82.4932 90.36 82.8598 90.36ZM91.4581 93.12C91.4581 93.28 91.4481 93.4467 91.4281 93.62H87.5581C87.5848 93.9667 87.6948 94.2333 87.8881 94.42C88.0881 94.6 88.3315 94.69 88.6181 94.69C89.0448 94.69 89.3415 94.51 89.5081 94.15H91.3281C91.2348 94.5167 91.0648 94.8467 90.8181 95.14C90.5781 95.4333 90.2748 95.6633 89.9081 95.83C89.5415 95.9967 89.1315 96.08 88.6781 96.08C88.1315 96.08 87.6448 95.9633 87.2181 95.73C86.7915 95.4967 86.4581 95.1633 86.2181 94.73C85.9781 94.2967 85.8581 93.79 85.8581 93.21C85.8581 92.63 85.9748 92.1233 86.2081 91.69C86.4481 91.2567 86.7815 90.9233 87.2081 90.69C87.6348 90.4567 88.1248 90.34 88.6781 90.34C89.2181 90.34 89.6981 90.4533 90.1181 90.68C90.5381 90.9067 90.8648 91.23 91.0981 91.65C91.3381 92.07 91.4581 92.56 91.4581 93.12ZM89.7081 92.67C89.7081 92.3767 89.6081 92.1433 89.4081 91.97C89.2081 91.7967 88.9581 91.71 88.6581 91.71C88.3715 91.71 88.1281 91.7933 87.9281 91.96C87.7348 92.1267 87.6148 92.3633 87.5681 92.67H89.7081ZM94.0702 91.35C94.2702 91.0433 94.5202 90.8033 94.8202 90.63C95.1202 90.45 95.4536 90.36 95.8202 90.36V92.17H95.3502C94.9236 92.17 94.6036 92.2633 94.3902 92.45C94.1769 92.63 94.0702 92.95 94.0702 93.41V96H92.3602V90.42H94.0702V91.35Z" fill="white"/>
</svg>
